<svg width="150" height="33" viewBox="0 0 150 33" fill="none" xmlns="http://www.w3.org/2000/svg">
<path d="M21.1877 32.8949H11.6456C11.5571 32.8949 11.4685 32.8949 11.38 32.8064L3.69153 27.0441C3.60499 26.9555 3.51643 26.867 3.51643 26.7784L0.511505 17.4718V17.2061L3.51643 7.10248C3.51643 7.01392 3.60499 6.92536 3.69153 6.8368L11.5571 1.07451C11.6456 0.985954 11.7342 0.985954 11.8227 0.985954H21.0126C21.1012 0.985954 21.1877 0.985954 21.2763 1.07451L29.1418 6.8368C29.2304 6.92536 29.3189 7.01392 29.3189 7.10248L32.3219 17.1176V17.3832L29.4055 26.7784C29.4055 26.867 29.3189 26.9555 29.2304 27.0441L21.542 32.8064C21.3648 32.8949 21.2763 32.8949 21.1877 32.8949ZM12.0864 31.9188H19.952C16.8585 28.9058 13.765 26.2471 10.585 23.854C10.8506 26.4242 11.38 29.1715 12.0864 31.9188ZM10.9392 22.8778C14.3849 25.3595 17.5649 28.1973 20.9241 31.3874C21.7191 27.1326 22.1599 23.055 22.337 19.1564C18.0963 20.042 14.1192 21.3724 10.9392 22.8778ZM23.2205 19.5992C23.0434 23.3226 22.6026 27.2212 21.8962 31.2103L28.2583 26.5127C26.7548 23.6769 25.1648 21.3724 23.2205 19.5992ZM4.75221 26.6013L10.8506 31.1218C10.2307 28.5516 9.78995 25.9814 9.52427 23.4998C7.66858 24.4739 6.07857 25.5366 4.75221 26.6013ZM1.83585 18.3574L4.22288 25.8043C5.54722 24.7396 7.13925 23.6769 8.99494 22.7007C6.6079 21.1067 4.31144 19.5992 1.83585 18.3574ZM23.8404 18.8022C25.6941 20.5733 27.3747 22.7007 28.7876 25.3595L31.1746 17.9146C28.7876 18.0031 26.314 18.3574 23.8404 18.8022ZM10.2307 12.3314C9.96706 15.4329 9.96706 18.7136 10.3193 21.9923C13.5899 20.4848 17.4764 19.1564 21.6305 18.2688C19.1569 16.4091 16.5928 15.2558 13.9421 14.016C12.7063 13.4827 11.4685 12.9513 10.2307 12.3314ZM1.83585 17.2061C4.4 18.5365 6.87358 20.042 9.2586 21.7266C8.99494 18.5365 8.99494 15.4329 9.17004 12.3314C6.34424 13.6618 3.86865 15.3444 1.83585 17.2061ZM22.8683 9.05276C23.2205 11.8886 23.3091 14.9016 23.3091 17.826C25.8712 17.2947 28.4354 16.9404 30.8204 16.7633C28.4354 13.9275 25.8712 11.4458 22.8683 9.05276ZM11.0257 11.5344C12.0864 12.0657 13.1471 12.5085 14.3849 13.0399C17.0356 14.1931 19.6863 15.4329 22.337 17.3832C22.337 14.3703 22.2484 11.3573 21.8076 8.43084C17.8306 9.22988 14.2078 10.204 11.0257 11.5344ZM4.22288 8.16517L2.01296 15.6986C3.86865 14.1046 6.16713 12.6856 8.72926 11.4458C6.96213 10.4697 5.54722 9.40699 4.22288 8.16517ZM23.4862 8.25373C26.1369 10.2926 28.5219 12.5971 30.6433 15.0787L28.5219 7.72238L23.4862 8.25373ZM12.0864 2.22778C11.2914 4.97508 10.6735 7.81094 10.3193 10.7354C13.5013 9.40699 17.0356 8.34229 20.9241 7.72238C18.537 5.86066 15.7092 4.17806 12.0864 2.22778ZM4.75221 7.27959C6.07857 8.60796 7.58003 9.67267 9.34716 10.7354C9.61283 8.07661 10.1422 5.41787 10.8506 2.84768L4.75221 7.27959ZM21.8076 2.67056C22.1599 4.17806 22.4255 5.7721 22.6912 7.36815C24.2812 7.10248 25.8712 6.92536 27.4633 6.8368L21.8076 2.67056ZM13.765 1.9621C16.7699 3.6447 19.332 5.24075 21.542 6.8368C21.2763 5.24075 21.0126 3.55614 20.5698 1.9621H13.765Z" fill="#646464"/>
<path d="M83.0433 9.05276L77.3877 24.7396H80.5698L81.5419 21.9923H87.1089L87.9925 24.7396H91.1725L85.4284 9.05276H83.0433ZM82.3369 19.4221L84.2811 13.7503L86.2254 19.4221H82.3369ZM104.957 13.9275C104.957 11.2687 103.102 9.14132 99.9216 9.14132H93.8232V24.8281H96.9167V18.5365H99.1266L102.218 24.8281H105.752L102.218 18.0917C103.544 17.4718 104.957 16.1434 104.957 13.9275ZM99.656 15.9643H96.7396V11.8001H99.656C100.982 11.8001 101.866 12.6856 101.866 13.8389C101.866 15.0787 100.982 15.9643 99.656 15.9643ZM119.626 13.9275C119.626 11.2687 117.77 9.14132 114.59 9.14132H108.492V24.8281H111.585V18.5365H113.795L116.886 24.8281H120.421L116.886 18.0917C118.301 17.4718 119.626 16.1434 119.626 13.9275ZM114.324 15.9643H111.408V11.8001H114.324C115.651 11.8001 116.534 12.6856 116.534 13.8389C116.621 15.0787 115.737 15.9643 114.324 15.9643ZM123.16 9.05276H126.253V24.7396H123.16V9.05276ZM139.243 16.8519C140.038 17.6489 140.479 18.8022 140.479 20.2191C140.479 23.2341 137.917 25.0052 134.648 25.0052C132.261 25.0052 130.494 24.4739 128.904 22.9664L130.848 21.0181C131.821 21.9923 133.145 22.3465 134.648 22.3465C136.416 22.3465 137.388 21.638 137.388 20.3962C137.388 19.8649 137.211 19.4221 136.945 19.0678C136.681 18.8022 136.327 18.625 135.532 18.5365L133.676 18.2688C132.35 18.0917 131.378 17.6489 130.671 16.9404C129.965 16.232 129.522 15.1673 129.522 13.8389C129.522 11.001 131.555 9.05276 135.001 9.05276C137.122 9.05276 138.712 9.58411 140.038 10.9125L138.094 12.8628C137.122 11.8886 135.884 11.8001 134.914 11.8001C133.322 11.8001 132.527 12.6856 132.527 13.7503C132.527 14.1046 132.616 14.5474 132.97 14.9016C133.233 15.1673 133.765 15.4329 134.383 15.5215L136.238 15.7872C137.653 15.7872 138.537 16.232 139.243 16.8519ZM60.0686 20.2191C60.0686 23.3226 57.7722 24.9167 55.1195 24.9167C52.9116 24.9167 50.7902 23.854 50.2609 21.4609L53.0001 20.3076C53.0001 21.7266 53.9722 22.3465 55.1195 22.3465C56.3573 22.3465 57.2408 21.5495 57.2408 20.1305C57.2408 18.8022 56.4458 18.0031 55.0329 18.0031H54.9444V15.5215H55.0329C56.4458 15.5215 56.9751 14.6359 56.9751 13.5732C56.9751 12.2429 56.0916 11.5344 55.0329 11.5344C53.9722 11.5344 53.1772 12.2429 53.0887 13.3941L50.3494 12.2429C50.8788 10.1155 52.7344 8.87564 54.9444 8.87564C57.6836 8.87564 59.7144 10.7354 59.7144 13.3941C59.7144 15.0787 58.9194 16.0549 57.9473 16.5862C59.1851 17.2947 60.0686 18.3574 60.0686 20.2191ZM71.6435 9.05276H74.737V24.7396H71.6435V18.1802H66.3421V24.7396H63.2507V9.05276H66.3421V15.4329H71.6435V9.05276ZM43.3674 22.0808H48.2281V24.8281H40.276V9.05276H43.3674V22.0808ZM142.866 9.49555H145.428V10.0269H144.456V13.1284H143.927V10.0269H142.955V9.49555H142.866ZM149.14 9.49555V13.1284H148.61V10.7354L147.815 12.42H147.373L146.578 10.7354V13.1284H146.046V9.49555H146.578L147.638 11.7115L148.61 9.49555H149.14Z" fill="#A5A5A5"/>
</svg>
