<svg width="18" height="12" viewBox="0 0 18 12" fill="none" xmlns="http://www.w3.org/2000/svg">
<mask id="mask0_5_49" style="mask-type:luminance" maskUnits="userSpaceOnUse" x="4" y="0" width="14" height="12">
<path d="M4 0H18V11.3671H4V0Z" fill="white"/>
</mask>
<g mask="url(#mask0_5_49)">
<path d="M9.15407 11.0587L13.9507 6.2654C14.2833 5.9328 14.2833 5.386 13.9507 5.0534L9.15407 0.249242C8.82147 -0.0830807 8.27411 -0.0830807 7.94151 0.249242C7.60891 0.581844 7.60891 1.12864 7.94151 1.46096L11.2787 4.7962H-9.14155C-9.61378 4.7962 -10 5.18214 -10 5.65409C-10 6.12577 -9.61378 6.51199 -9.14155 6.51199H11.2681L7.9309 9.84694C7.75915 10.0187 7.68403 10.2332 7.68403 10.4583C7.68403 10.6833 7.76977 10.8978 7.9309 11.0696C8.27411 11.3913 8.82147 11.3913 9.15407 11.0587Z" fill="white"/>
</g>
</svg>
